<mxfile host="app.diagrams.net" modified="2023-08-16T01:27:57.872Z" agent="Mozilla/5.0 (Windows NT 10.0; Win64; x64) AppleWebKit/537.36 (KHTML, like Gecko) Chrome/115.0.0.0 Safari/537.36" etag="0NhDCfm1y8Sv58fW7xO0" version="21.6.8" type="device">
  <diagram name="ユースケース図" id="51D9tF43_6rOvlpM99Fn">
    <mxGraphModel dx="1434" dy="790" grid="1" gridSize="10" guides="1" tooltips="1" connect="1" arrows="1" fold="1" page="1" pageScale="1" pageWidth="2336" pageHeight="1654" math="0" shadow="0">
      <root>
        <mxCell id="0" />
        <mxCell id="1" parent="0" />
        <mxCell id="cxrqfRSya6qQMsHsaMvN-1" value="" style="rounded=0;whiteSpace=wrap;html=1;" parent="1" vertex="1">
          <mxGeometry x="380" y="55" width="600" height="825" as="geometry" />
        </mxCell>
        <mxCell id="cxrqfRSya6qQMsHsaMvN-2" value="" style="rounded=0;whiteSpace=wrap;html=1;" parent="1" vertex="1">
          <mxGeometry x="720" y="240" width="190" height="343" as="geometry" />
        </mxCell>
        <mxCell id="cxrqfRSya6qQMsHsaMvN-3" value="閲覧者" style="shape=umlActor;verticalLabelPosition=bottom;verticalAlign=top;html=1;outlineConnect=0;" parent="1" vertex="1">
          <mxGeometry x="1110" y="313" width="30" height="60" as="geometry" />
        </mxCell>
        <mxCell id="cxrqfRSya6qQMsHsaMvN-4" value="投稿を全部見る" style="ellipse;whiteSpace=wrap;html=1;" parent="1" vertex="1">
          <mxGeometry x="750" y="300" width="130" height="50" as="geometry" />
        </mxCell>
        <mxCell id="cxrqfRSya6qQMsHsaMvN-5" value="キーワード検索" style="ellipse;whiteSpace=wrap;html=1;" parent="1" vertex="1">
          <mxGeometry x="750" y="363" width="130" height="50" as="geometry" />
        </mxCell>
        <mxCell id="cxrqfRSya6qQMsHsaMvN-6" value="カテゴリー別&lt;br&gt;投稿を見る" style="ellipse;whiteSpace=wrap;html=1;" parent="1" vertex="1">
          <mxGeometry x="750" y="423" width="130" height="50" as="geometry" />
        </mxCell>
        <mxCell id="cxrqfRSya6qQMsHsaMvN-7" value="コメントをする" style="ellipse;whiteSpace=wrap;html=1;" parent="1" vertex="1">
          <mxGeometry x="750" y="483" width="130" height="50" as="geometry" />
        </mxCell>
        <mxCell id="cxrqfRSya6qQMsHsaMvN-8" value="ブログ閲覧システム" style="text;html=1;strokeColor=none;fillColor=none;align=center;verticalAlign=middle;whiteSpace=wrap;rounded=0;fontStyle=1" parent="1" vertex="1">
          <mxGeometry x="750" y="253" width="120" height="30" as="geometry" />
        </mxCell>
        <mxCell id="cxrqfRSya6qQMsHsaMvN-9" value="ブログシステム" style="text;html=1;strokeColor=none;fillColor=none;align=center;verticalAlign=middle;whiteSpace=wrap;rounded=0;fontStyle=1;fontSize=19;" parent="1" vertex="1">
          <mxGeometry x="590" y="70" width="200" height="30" as="geometry" />
        </mxCell>
        <mxCell id="cxrqfRSya6qQMsHsaMvN-10" value="" style="endArrow=classic;html=1;rounded=0;entryX=1;entryY=0.5;entryDx=0;entryDy=0;" parent="1" source="cxrqfRSya6qQMsHsaMvN-3" target="cxrqfRSya6qQMsHsaMvN-4" edge="1">
          <mxGeometry width="50" height="50" relative="1" as="geometry">
            <mxPoint x="990" y="480" as="sourcePoint" />
            <mxPoint x="1040" y="430" as="targetPoint" />
          </mxGeometry>
        </mxCell>
        <mxCell id="cxrqfRSya6qQMsHsaMvN-11" value="" style="endArrow=classic;html=1;rounded=0;entryX=1;entryY=0.5;entryDx=0;entryDy=0;" parent="1" source="cxrqfRSya6qQMsHsaMvN-3" target="cxrqfRSya6qQMsHsaMvN-5" edge="1">
          <mxGeometry width="50" height="50" relative="1" as="geometry">
            <mxPoint x="980" y="500" as="sourcePoint" />
            <mxPoint x="1030" y="450" as="targetPoint" />
          </mxGeometry>
        </mxCell>
        <mxCell id="cxrqfRSya6qQMsHsaMvN-12" value="" style="endArrow=classic;html=1;rounded=0;entryX=1;entryY=0.5;entryDx=0;entryDy=0;" parent="1" source="cxrqfRSya6qQMsHsaMvN-3" target="cxrqfRSya6qQMsHsaMvN-6" edge="1">
          <mxGeometry width="50" height="50" relative="1" as="geometry">
            <mxPoint x="990" y="560" as="sourcePoint" />
            <mxPoint x="1040" y="510" as="targetPoint" />
          </mxGeometry>
        </mxCell>
        <mxCell id="cxrqfRSya6qQMsHsaMvN-13" value="" style="endArrow=classic;html=1;rounded=0;entryX=1;entryY=0.5;entryDx=0;entryDy=0;" parent="1" source="cxrqfRSya6qQMsHsaMvN-3" target="cxrqfRSya6qQMsHsaMvN-7" edge="1">
          <mxGeometry width="50" height="50" relative="1" as="geometry">
            <mxPoint x="960" y="590" as="sourcePoint" />
            <mxPoint x="1010" y="540" as="targetPoint" />
          </mxGeometry>
        </mxCell>
        <mxCell id="cxrqfRSya6qQMsHsaMvN-14" value="" style="rounded=0;whiteSpace=wrap;html=1;" parent="1" vertex="1">
          <mxGeometry x="420" y="100" width="220" height="760" as="geometry" />
        </mxCell>
        <mxCell id="cxrqfRSya6qQMsHsaMvN-16" value="制作者" style="shape=umlActor;verticalLabelPosition=bottom;verticalAlign=top;html=1;outlineConnect=0;" parent="1" vertex="1">
          <mxGeometry x="840" y="730" width="30" height="60" as="geometry" />
        </mxCell>
        <mxCell id="_aJTStU9Hu0Qwzf-QUHf-5" value="" style="rounded=0;whiteSpace=wrap;html=1;" vertex="1" parent="1">
          <mxGeometry x="430" y="440" width="200" height="410" as="geometry" />
        </mxCell>
        <mxCell id="cxrqfRSya6qQMsHsaMvN-17" value="Login / Log out" style="ellipse;whiteSpace=wrap;html=1;" parent="1" vertex="1">
          <mxGeometry x="460" y="490" width="130" height="50" as="geometry" />
        </mxCell>
        <mxCell id="cxrqfRSya6qQMsHsaMvN-18" value="個人情報を変更" style="ellipse;whiteSpace=wrap;html=1;" parent="1" vertex="1">
          <mxGeometry x="460" y="610" width="130" height="50" as="geometry" />
        </mxCell>
        <mxCell id="cxrqfRSya6qQMsHsaMvN-19" value="投稿を制作" style="ellipse;whiteSpace=wrap;html=1;" parent="1" vertex="1">
          <mxGeometry x="460" y="670" width="130" height="50" as="geometry" />
        </mxCell>
        <mxCell id="_aJTStU9Hu0Qwzf-QUHf-2" value="" style="rounded=0;whiteSpace=wrap;html=1;" vertex="1" parent="1">
          <mxGeometry x="430" y="140" width="200" height="290" as="geometry" />
        </mxCell>
        <mxCell id="cxrqfRSya6qQMsHsaMvN-20" value="投稿を変更" style="ellipse;whiteSpace=wrap;html=1;" parent="1" vertex="1">
          <mxGeometry x="460" y="730" width="130" height="50" as="geometry" />
        </mxCell>
        <mxCell id="cxrqfRSya6qQMsHsaMvN-21" value="投稿を削除" style="ellipse;whiteSpace=wrap;html=1;" parent="1" vertex="1">
          <mxGeometry x="460" y="790" width="130" height="50" as="geometry" />
        </mxCell>
        <mxCell id="cxrqfRSya6qQMsHsaMvN-22" value="制作者を削除" style="ellipse;whiteSpace=wrap;html=1;" parent="1" vertex="1">
          <mxGeometry x="460" y="240" width="130" height="50" as="geometry" />
        </mxCell>
        <mxCell id="cxrqfRSya6qQMsHsaMvN-23" value="制作者を承認" style="ellipse;whiteSpace=wrap;html=1;" parent="1" vertex="1">
          <mxGeometry x="460" y="180" width="130" height="50" as="geometry" />
        </mxCell>
        <mxCell id="cxrqfRSya6qQMsHsaMvN-24" value="コメントを承認" style="ellipse;whiteSpace=wrap;html=1;" parent="1" vertex="1">
          <mxGeometry x="460" y="300" width="130" height="50" as="geometry" />
        </mxCell>
        <mxCell id="cxrqfRSya6qQMsHsaMvN-25" value="コメントを削除" style="ellipse;whiteSpace=wrap;html=1;" parent="1" vertex="1">
          <mxGeometry x="460" y="360" width="130" height="50" as="geometry" />
        </mxCell>
        <mxCell id="cxrqfRSya6qQMsHsaMvN-26" value="制作者として登録" style="ellipse;whiteSpace=wrap;html=1;" parent="1" vertex="1">
          <mxGeometry x="460" y="550" width="130" height="50" as="geometry" />
        </mxCell>
        <mxCell id="cxrqfRSya6qQMsHsaMvN-27" value="ブログ・サイト管理システム" style="text;html=1;strokeColor=none;fillColor=none;align=center;verticalAlign=middle;whiteSpace=wrap;rounded=0;fontStyle=1" parent="1" vertex="1">
          <mxGeometry x="445" y="110" width="170" height="30" as="geometry" />
        </mxCell>
        <mxCell id="cxrqfRSya6qQMsHsaMvN-28" value="" style="endArrow=classic;html=1;rounded=0;entryX=0.031;entryY=0.64;entryDx=0;entryDy=0;entryPerimeter=0;" parent="1" source="cxrqfRSya6qQMsHsaMvN-15" target="cxrqfRSya6qQMsHsaMvN-23" edge="1">
          <mxGeometry width="50" height="50" relative="1" as="geometry">
            <mxPoint x="340" y="300" as="sourcePoint" />
            <mxPoint x="390" y="250" as="targetPoint" />
          </mxGeometry>
        </mxCell>
        <mxCell id="cxrqfRSya6qQMsHsaMvN-29" value="" style="endArrow=classic;html=1;rounded=0;entryX=0;entryY=0.5;entryDx=0;entryDy=0;" parent="1" target="cxrqfRSya6qQMsHsaMvN-22" edge="1">
          <mxGeometry width="50" height="50" relative="1" as="geometry">
            <mxPoint x="310" y="290" as="sourcePoint" />
            <mxPoint x="474" y="222" as="targetPoint" />
          </mxGeometry>
        </mxCell>
        <mxCell id="cxrqfRSya6qQMsHsaMvN-30" value="" style="endArrow=classic;html=1;rounded=0;entryX=0;entryY=0.5;entryDx=0;entryDy=0;" parent="1" source="cxrqfRSya6qQMsHsaMvN-15" target="cxrqfRSya6qQMsHsaMvN-24" edge="1">
          <mxGeometry width="50" height="50" relative="1" as="geometry">
            <mxPoint x="880" y="490" as="sourcePoint" />
            <mxPoint x="930" y="440" as="targetPoint" />
          </mxGeometry>
        </mxCell>
        <mxCell id="cxrqfRSya6qQMsHsaMvN-31" value="" style="endArrow=classic;html=1;rounded=0;entryX=0;entryY=0.5;entryDx=0;entryDy=0;" parent="1" source="cxrqfRSya6qQMsHsaMvN-15" target="cxrqfRSya6qQMsHsaMvN-25" edge="1">
          <mxGeometry width="50" height="50" relative="1" as="geometry">
            <mxPoint x="880" y="490" as="sourcePoint" />
            <mxPoint x="930" y="440" as="targetPoint" />
          </mxGeometry>
        </mxCell>
        <mxCell id="cxrqfRSya6qQMsHsaMvN-32" value="" style="endArrow=classic;html=1;rounded=0;entryX=0;entryY=0.5;entryDx=0;entryDy=0;" parent="1" source="cxrqfRSya6qQMsHsaMvN-15" target="cxrqfRSya6qQMsHsaMvN-17" edge="1">
          <mxGeometry width="50" height="50" relative="1" as="geometry">
            <mxPoint x="880" y="490" as="sourcePoint" />
            <mxPoint x="930" y="440" as="targetPoint" />
          </mxGeometry>
        </mxCell>
        <mxCell id="cxrqfRSya6qQMsHsaMvN-33" value="" style="endArrow=classic;html=1;rounded=0;entryX=1;entryY=0.5;entryDx=0;entryDy=0;" parent="1" source="cxrqfRSya6qQMsHsaMvN-16" target="cxrqfRSya6qQMsHsaMvN-26" edge="1">
          <mxGeometry width="50" height="50" relative="1" as="geometry">
            <mxPoint x="880" y="590" as="sourcePoint" />
            <mxPoint x="930" y="540" as="targetPoint" />
          </mxGeometry>
        </mxCell>
        <mxCell id="cxrqfRSya6qQMsHsaMvN-34" value="" style="endArrow=classic;html=1;rounded=0;entryX=0;entryY=0.5;entryDx=0;entryDy=0;" parent="1" source="cxrqfRSya6qQMsHsaMvN-15" target="cxrqfRSya6qQMsHsaMvN-18" edge="1">
          <mxGeometry width="50" height="50" relative="1" as="geometry">
            <mxPoint x="880" y="490" as="sourcePoint" />
            <mxPoint x="930" y="440" as="targetPoint" />
          </mxGeometry>
        </mxCell>
        <mxCell id="cxrqfRSya6qQMsHsaMvN-35" value="" style="endArrow=classic;html=1;rounded=0;entryX=1;entryY=0.5;entryDx=0;entryDy=0;" parent="1" source="cxrqfRSya6qQMsHsaMvN-16" target="cxrqfRSya6qQMsHsaMvN-18" edge="1">
          <mxGeometry width="50" height="50" relative="1" as="geometry">
            <mxPoint x="880" y="490" as="sourcePoint" />
            <mxPoint x="930" y="440" as="targetPoint" />
          </mxGeometry>
        </mxCell>
        <mxCell id="cxrqfRSya6qQMsHsaMvN-36" value="" style="endArrow=classic;html=1;rounded=0;entryX=0;entryY=0.5;entryDx=0;entryDy=0;" parent="1" source="cxrqfRSya6qQMsHsaMvN-15" target="cxrqfRSya6qQMsHsaMvN-19" edge="1">
          <mxGeometry width="50" height="50" relative="1" as="geometry">
            <mxPoint x="880" y="490" as="sourcePoint" />
            <mxPoint x="930" y="440" as="targetPoint" />
          </mxGeometry>
        </mxCell>
        <mxCell id="cxrqfRSya6qQMsHsaMvN-37" value="" style="endArrow=classic;html=1;rounded=0;entryX=1.023;entryY=0.66;entryDx=0;entryDy=0;entryPerimeter=0;" parent="1" source="cxrqfRSya6qQMsHsaMvN-16" target="cxrqfRSya6qQMsHsaMvN-19" edge="1">
          <mxGeometry width="50" height="50" relative="1" as="geometry">
            <mxPoint x="880" y="490" as="sourcePoint" />
            <mxPoint x="930" y="440" as="targetPoint" />
          </mxGeometry>
        </mxCell>
        <mxCell id="cxrqfRSya6qQMsHsaMvN-38" value="" style="endArrow=classic;html=1;rounded=0;entryX=1.015;entryY=0.66;entryDx=0;entryDy=0;entryPerimeter=0;" parent="1" source="cxrqfRSya6qQMsHsaMvN-16" target="cxrqfRSya6qQMsHsaMvN-20" edge="1">
          <mxGeometry width="50" height="50" relative="1" as="geometry">
            <mxPoint x="880" y="490" as="sourcePoint" />
            <mxPoint x="930" y="440" as="targetPoint" />
          </mxGeometry>
        </mxCell>
        <mxCell id="cxrqfRSya6qQMsHsaMvN-39" value="" style="endArrow=classic;html=1;rounded=0;" parent="1" source="cxrqfRSya6qQMsHsaMvN-16" target="cxrqfRSya6qQMsHsaMvN-21" edge="1">
          <mxGeometry width="50" height="50" relative="1" as="geometry">
            <mxPoint x="880" y="490" as="sourcePoint" />
            <mxPoint x="600" y="790" as="targetPoint" />
          </mxGeometry>
        </mxCell>
        <mxCell id="cxrqfRSya6qQMsHsaMvN-40" value="" style="endArrow=classic;html=1;rounded=0;entryX=0;entryY=0.5;entryDx=0;entryDy=0;" parent="1" source="cxrqfRSya6qQMsHsaMvN-15" target="cxrqfRSya6qQMsHsaMvN-20" edge="1">
          <mxGeometry width="50" height="50" relative="1" as="geometry">
            <mxPoint x="880" y="590" as="sourcePoint" />
            <mxPoint x="930" y="540" as="targetPoint" />
          </mxGeometry>
        </mxCell>
        <mxCell id="cxrqfRSya6qQMsHsaMvN-41" value="" style="endArrow=classic;html=1;rounded=0;entryX=0;entryY=0.5;entryDx=0;entryDy=0;" parent="1" source="cxrqfRSya6qQMsHsaMvN-15" target="cxrqfRSya6qQMsHsaMvN-21" edge="1">
          <mxGeometry width="50" height="50" relative="1" as="geometry">
            <mxPoint x="880" y="590" as="sourcePoint" />
            <mxPoint x="930" y="540" as="targetPoint" />
          </mxGeometry>
        </mxCell>
        <mxCell id="_aJTStU9Hu0Qwzf-QUHf-1" value="" style="endArrow=classic;html=1;rounded=0;entryX=1;entryY=0.5;entryDx=0;entryDy=0;" edge="1" parent="1" target="cxrqfRSya6qQMsHsaMvN-17">
          <mxGeometry width="50" height="50" relative="1" as="geometry">
            <mxPoint x="840" y="740" as="sourcePoint" />
            <mxPoint x="615" y="533" as="targetPoint" />
          </mxGeometry>
        </mxCell>
        <mxCell id="_aJTStU9Hu0Qwzf-QUHf-4" value="管理者のシステム" style="text;html=1;strokeColor=none;fillColor=none;align=center;verticalAlign=middle;whiteSpace=wrap;rounded=0;fontStyle=1" vertex="1" parent="1">
          <mxGeometry x="480" y="150" width="100" height="30" as="geometry" />
        </mxCell>
        <mxCell id="_aJTStU9Hu0Qwzf-QUHf-6" value="制作者のシステム" style="text;html=1;strokeColor=none;fillColor=none;align=center;verticalAlign=middle;whiteSpace=wrap;rounded=0;fontStyle=1" vertex="1" parent="1">
          <mxGeometry x="455" y="453" width="150" height="30" as="geometry" />
        </mxCell>
        <mxCell id="cxrqfRSya6qQMsHsaMvN-15" value="管理者" style="shape=umlActor;verticalLabelPosition=bottom;verticalAlign=top;html=1;outlineConnect=0;" parent="1" vertex="1">
          <mxGeometry x="260" y="253" width="30" height="60" as="geometry" />
        </mxCell>
      </root>
    </mxGraphModel>
  </diagram>
</mxfile>
